<svg width="245" height="50" viewBox="0 0 245 50" fill="none" xmlns="http://www.w3.org/2000/svg">
<path d="M0 0H245V50H0V0Z" fill="#FFFDFD"/>
<path d="M71.3943 24H59.2927C58.8379 24 58.5027 23.9333 58.2873 23.8C58.0958 23.65 58 23.4167 58 23.1V6.9C58 6.58333 58.0958 6.35833 58.2873 6.225C58.5027 6.075 58.8379 6 59.2927 6H71.3943C74.3867 6 76.6012 6.41667 78.0376 7.25C79.4979 8.08333 80.228 9.36667 80.228 11.1V18.9C80.228 20.6333 79.4979 21.9167 78.0376 22.75C76.6012 23.5833 74.3867 24 71.3943 24ZM66.1515 10.775V19.275H70.4247C70.9993 19.275 71.4182 19.175 71.6816 18.975C71.9688 18.775 72.1125 18.4667 72.1125 18.05V11.975C72.1125 11.5583 71.9688 11.2583 71.6816 11.075C71.4182 10.875 70.9993 10.775 70.4247 10.775H66.1515Z" fill="black"/>
<path d="M85.6897 24C85.2348 24 84.8997 23.9333 84.6842 23.8C84.4927 23.65 84.3969 23.4167 84.3969 23.1V20.125C84.3969 19.8083 84.4927 19.5833 84.6842 19.45C84.8997 19.3 85.2348 19.225 85.6897 19.225H89.2447V10.825H85.6897C85.2348 10.825 84.8997 10.7583 84.6842 10.625C84.4927 10.475 84.3969 10.2417 84.3969 9.925V6.9C84.3969 6.58333 84.4927 6.35833 84.6842 6.225C84.8997 6.075 85.2348 6 85.6897 6H100.987C101.442 6 101.765 6.075 101.957 6.225C102.172 6.35833 102.28 6.58333 102.28 6.9V9.925C102.28 10.2417 102.172 10.475 101.957 10.625C101.765 10.7583 101.442 10.825 100.987 10.825H97.5039V19.225H100.987C101.442 19.225 101.765 19.3 101.957 19.45C102.172 19.5833 102.28 19.8083 102.28 20.125V23.1C102.28 23.4167 102.172 23.65 101.957 23.8C101.765 23.9333 101.442 24 100.987 24H85.6897Z" fill="black"/>
<path d="M126.643 24H115.332C112.339 24 110.113 23.5833 108.653 22.75C107.216 21.9167 106.498 20.6333 106.498 18.9V11.1C106.498 9.36667 107.216 8.08333 108.653 7.25C110.113 6.41667 112.339 6 115.332 6H124.309C124.764 6 125.087 6.075 125.279 6.225C125.494 6.35833 125.602 6.58333 125.602 6.9V9.925C125.602 10.2417 125.494 10.475 125.279 10.625C125.087 10.7583 124.764 10.825 124.309 10.825H116.84C116.098 10.825 115.547 10.9333 115.188 11.15C114.829 11.35 114.65 11.6583 114.65 12.075V18.05C114.65 18.4667 114.781 18.775 115.045 18.975C115.332 19.175 115.751 19.275 116.301 19.275H119.785V15.375C119.785 15.0583 119.88 14.8333 120.072 14.7C120.287 14.55 120.623 14.475 121.077 14.475H126.643C127.098 14.475 127.421 14.55 127.613 14.7C127.828 14.8333 127.936 15.0583 127.936 15.375V23.1C127.936 23.4167 127.828 23.65 127.613 23.8C127.421 23.9333 127.098 24 126.643 24Z" fill="black"/>
<path d="M133.215 24C132.76 24 132.425 23.9333 132.21 23.8C132.018 23.65 131.922 23.4167 131.922 23.1V20.125C131.922 19.8083 132.018 19.5833 132.21 19.45C132.425 19.3 132.76 19.225 133.215 19.225H136.77V10.825H133.215C132.76 10.825 132.425 10.7583 132.21 10.625C132.018 10.475 131.922 10.2417 131.922 9.925V6.9C131.922 6.58333 132.018 6.35833 132.21 6.225C132.425 6.075 132.76 6 133.215 6H148.513C148.968 6 149.291 6.075 149.482 6.225C149.698 6.35833 149.805 6.58333 149.805 6.9V9.925C149.805 10.2417 149.698 10.475 149.482 10.625C149.291 10.7583 148.968 10.825 148.513 10.825H145.029V19.225H148.513C148.968 19.225 149.291 19.3 149.482 19.45C149.698 19.5833 149.805 19.8083 149.805 20.125V23.1C149.805 23.4167 149.698 23.65 149.482 23.8C149.291 23.9333 148.968 24 148.513 24H133.215Z" fill="black"/>
<path d="M166.628 24H160.811C160.356 24 160.021 23.9333 159.805 23.8C159.614 23.65 159.518 23.4167 159.518 23.1V10.825H154.239C153.784 10.825 153.449 10.7583 153.234 10.625C153.042 10.475 152.946 10.2417 152.946 9.925V6.9C152.946 6.58333 153.042 6.35833 153.234 6.225C153.449 6.075 153.784 6 154.239 6H173.199C173.654 6 173.977 6.075 174.169 6.225C174.384 6.35833 174.492 6.58333 174.492 6.9V9.925C174.492 10.2417 174.384 10.475 174.169 10.625C173.977 10.7583 173.654 10.825 173.199 10.825H167.921V23.1C167.921 23.4167 167.813 23.65 167.598 23.8C167.406 23.9333 167.083 24 166.628 24Z" fill="black"/>
<path d="M186.099 11.25L184.411 15.05H190.049L188.361 11.25C188.265 11.1 188.157 10.9917 188.038 10.925C187.942 10.8583 187.822 10.825 187.679 10.825H186.781C186.637 10.825 186.506 10.8583 186.386 10.925C186.29 10.9917 186.194 11.1 186.099 11.25ZM184.052 23.1C184.052 23.4167 183.944 23.65 183.729 23.8C183.537 23.9333 183.214 24 182.759 24H177.48C177.025 24 176.69 23.9333 176.475 23.8C176.283 23.65 176.187 23.4167 176.187 23.1V16.5C176.187 16 176.295 15.425 176.511 14.775C176.75 14.125 177.109 13.3667 177.588 12.5L180.712 6.825C180.856 6.54167 181.071 6.33333 181.358 6.2C181.67 6.06667 182.065 6 182.543 6H192.203C192.658 6 193.029 6.06667 193.316 6.2C193.628 6.33333 193.855 6.54167 193.999 6.825L197.123 12.5C197.602 13.3667 197.949 14.125 198.164 14.775C198.404 15.425 198.523 16 198.523 16.5V23.1C198.523 23.4167 198.416 23.65 198.2 23.8C198.009 23.9333 197.685 24 197.231 24H191.808C191.329 24 190.97 23.9333 190.731 23.8C190.515 23.65 190.408 23.4167 190.408 23.1V19.6H184.052V23.1Z" fill="black"/>
<path d="M222.707 24H204.429C203.974 24 203.639 23.9333 203.424 23.8C203.232 23.65 203.137 23.4167 203.137 23.1V6.9C203.137 6.58333 203.232 6.35833 203.424 6.225C203.639 6.075 203.974 6 204.429 6H209.995C210.45 6 210.773 6.075 210.965 6.225C211.18 6.35833 211.288 6.58333 211.288 6.9V19.275H216.208V15.225C216.208 14.9083 216.303 14.6833 216.495 14.55C216.71 14.4 217.046 14.325 217.5 14.325H222.707C223.162 14.325 223.485 14.4 223.677 14.55C223.892 14.6833 224 14.9083 224 15.225V23.1C224 23.4167 223.892 23.65 223.677 23.8C223.485 23.9333 223.162 24 222.707 24Z" fill="black"/>
<path fill-rule="evenodd" clip-rule="evenodd" d="M33.3509 27.2754L8.71999 46.7641L2 40.8763L26.2703 21.673L10.4097 9.12368L17.1297 3.23591L33.3509 16.0706L49.8703 3L56.5903 8.88777L40.4316 21.673L65 41.1122L58.28 47L33.3509 27.2754Z" fill="#ABA7A7"/>
<path d="M9.36001 49.14H3.78001C3.32401 49.14 2.98801 49.0689 2.77201 48.9267C2.58001 48.7667 2.48401 48.5178 2.48401 48.18V30.9C2.48401 30.5622 2.58001 30.3222 2.77201 30.18C2.98801 30.02 3.32401 29.94 3.78001 29.94H14.796C18.06 29.94 20.292 30.42 21.492 31.38C22.692 32.34 23.292 33.5933 23.292 35.14V38.5533C23.292 40.1 22.692 41.3533 21.492 42.3133C20.292 43.2733 18.06 43.7533 14.796 43.7533H10.656V48.18C10.656 48.5178 10.548 48.7667 10.332 48.9267C10.14 49.0689 9.81601 49.14 9.36001 49.14ZM10.584 34.9267V38.9533H13.824C14.52 38.9533 14.976 38.82 15.192 38.5533C15.408 38.2867 15.516 37.9845 15.516 37.6467V36.2333C15.516 35.8956 15.408 35.5933 15.192 35.3267C14.976 35.06 14.52 34.9267 13.824 34.9267H10.584Z" fill="#FB4D46"/>
<path d="M51.1431 44.1C51.1431 44.9178 50.9751 45.6645 50.6391 46.34C50.3271 46.9978 49.7511 47.5667 48.9111 48.0467C48.0951 48.5089 46.9551 48.8733 45.4911 49.14C44.0511 49.4067 42.2151 49.54 39.9831 49.54C37.7511 49.54 35.9031 49.4067 34.4391 49.14C32.9751 48.8733 31.8231 48.5089 30.9831 48.0467C30.1671 47.5667 29.5911 46.9978 29.2551 46.34C28.9431 45.6645 28.7871 44.9178 28.7871 44.1V35.0067C28.7871 34.1889 28.9431 33.4511 29.2551 32.7933C29.5911 32.1178 30.1671 31.54 30.9831 31.06C31.8231 30.58 32.9751 30.2067 34.4391 29.94C35.9031 29.6733 37.7511 29.54 39.9831 29.54C42.2151 29.54 44.0511 29.6733 45.4911 29.94C46.9551 30.2067 48.0951 30.58 48.9111 31.06C49.7511 31.54 50.3271 32.1178 50.6391 32.7933C50.9751 33.4511 51.1431 34.1889 51.1431 35.0067V44.1ZM36.9591 43.14C36.9591 43.4956 37.1391 43.7978 37.4991 44.0467C37.8591 44.2778 38.6871 44.3933 39.9831 44.3933C41.2791 44.3933 42.1071 44.2778 42.4671 44.0467C42.8271 43.7978 43.0071 43.4956 43.0071 43.14V35.9667C43.0071 35.6289 42.8271 35.3445 42.4671 35.1133C42.1071 34.8645 41.2791 34.74 39.9831 34.74C38.6871 34.74 37.8591 34.8645 37.4991 35.1133C37.1391 35.3445 36.9591 35.6289 36.9591 35.9667V43.14Z" fill="#FB4D46"/>
<path d="M66.022 34.74V38.1533H68.722C69.346 38.1533 69.766 38.0378 69.982 37.8067C70.198 37.5578 70.306 37.2556 70.306 36.9V35.9933C70.306 35.6378 70.198 35.3445 69.982 35.1133C69.766 34.8645 69.346 34.74 68.722 34.74H66.022ZM64.726 49.14H59.182C58.726 49.14 58.39 49.0689 58.174 48.9267C57.982 48.7667 57.886 48.5178 57.886 48.18V30.9C57.886 30.5622 57.982 30.3222 58.174 30.18C58.39 30.02 58.726 29.94 59.182 29.94H71.17C73.858 29.94 75.706 30.3578 76.714 31.1933C77.746 32.0111 78.262 33.0778 78.262 34.3933V35.62C78.262 36.3667 78.106 37.0067 77.794 37.54C77.506 38.0556 76.99 38.4289 76.246 38.66C77.542 38.7667 78.586 39.1578 79.378 39.8333C80.194 40.5089 80.602 41.4067 80.602 42.5267V48.18C80.602 48.5178 80.494 48.7667 80.278 48.9267C80.086 49.0689 79.762 49.14 79.306 49.14H73.726C73.27 49.14 72.934 49.0689 72.718 48.9267C72.526 48.7667 72.43 48.5178 72.43 48.18V44.1C72.43 43.7089 72.322 43.4245 72.106 43.2467C71.914 43.0511 71.566 42.9533 71.062 42.9533H66.022V48.18C66.022 48.5178 65.914 48.7667 65.698 48.9267C65.506 49.0689 65.182 49.14 64.726 49.14Z" fill="#FB4D46"/>
<path d="M97.9501 49.14H92.1181C91.6621 49.14 91.3261 49.0689 91.1101 48.9267C90.9181 48.7667 90.8221 48.5178 90.8221 48.18V35.0867H85.5301C85.0741 35.0867 84.7381 35.0156 84.5221 34.8733C84.3301 34.7133 84.2341 34.4645 84.2341 34.1267V30.9C84.2341 30.5622 84.3301 30.3222 84.5221 30.18C84.7381 30.02 85.0741 29.94 85.5301 29.94H104.538C104.994 29.94 105.318 30.02 105.51 30.18C105.726 30.3222 105.834 30.5622 105.834 30.9V34.1267C105.834 34.4645 105.726 34.7133 105.51 34.8733C105.318 35.0156 104.994 35.0867 104.538 35.0867H99.2461V48.18C99.2461 48.5178 99.1381 48.7667 98.9221 48.9267C98.7301 49.0689 98.4061 49.14 97.9501 49.14Z" fill="#FB4D46"/>
<path d="M118.371 49.14H112.791C112.335 49.14 111.999 49.0689 111.783 48.9267C111.591 48.7667 111.495 48.5178 111.495 48.18V30.9C111.495 30.5622 111.591 30.3222 111.783 30.18C111.999 30.02 112.335 29.94 112.791 29.94H128.847C129.303 29.94 129.627 30.02 129.819 30.18C130.035 30.3222 130.143 30.5622 130.143 30.9V34.0733C130.143 34.4111 130.035 34.66 129.819 34.82C129.627 34.9622 129.303 35.0333 128.847 35.0333H119.667V37.8067H125.931C126.387 37.8067 126.711 37.8867 126.903 38.0467C127.119 38.1889 127.227 38.4289 127.227 38.7667V41.9667C127.227 42.3045 127.119 42.5533 126.903 42.7133C126.711 42.8556 126.387 42.9267 125.931 42.9267H119.667V48.18C119.667 48.5178 119.559 48.7667 119.343 48.9267C119.151 49.0689 118.827 49.14 118.371 49.14Z" fill="#FB4D46"/>
<path d="M157.693 44.1C157.693 44.9178 157.525 45.6645 157.189 46.34C156.877 46.9978 156.301 47.5667 155.461 48.0467C154.645 48.5089 153.505 48.8733 152.041 49.14C150.601 49.4067 148.765 49.54 146.533 49.54C144.301 49.54 142.453 49.4067 140.989 49.14C139.525 48.8733 138.373 48.5089 137.533 48.0467C136.717 47.5667 136.141 46.9978 135.805 46.34C135.493 45.6645 135.337 44.9178 135.337 44.1V35.0067C135.337 34.1889 135.493 33.4511 135.805 32.7933C136.141 32.1178 136.717 31.54 137.533 31.06C138.373 30.58 139.525 30.2067 140.989 29.94C142.453 29.6733 144.301 29.54 146.533 29.54C148.765 29.54 150.601 29.6733 152.041 29.94C153.505 30.2067 154.645 30.58 155.461 31.06C156.301 31.54 156.877 32.1178 157.189 32.7933C157.525 33.4511 157.693 34.1889 157.693 35.0067V44.1ZM143.509 43.14C143.509 43.4956 143.689 43.7978 144.049 44.0467C144.409 44.2778 145.237 44.3933 146.533 44.3933C147.829 44.3933 148.657 44.2778 149.017 44.0467C149.377 43.7978 149.557 43.4956 149.557 43.14V35.9667C149.557 35.6289 149.377 35.3445 149.017 35.1133C148.657 34.8645 147.829 34.74 146.533 34.74C145.237 34.74 144.409 34.8645 144.049 35.1133C143.689 35.3445 143.509 35.6289 143.509 35.9667V43.14Z" fill="#FB4D46"/>
<path d="M184.056 49.14H165.732C165.276 49.14 164.94 49.0689 164.724 48.9267C164.532 48.7667 164.436 48.5178 164.436 48.18V30.9C164.436 30.5622 164.532 30.3222 164.724 30.18C164.94 30.02 165.276 29.94 165.732 29.94H171.312C171.768 29.94 172.092 30.02 172.284 30.18C172.5 30.3222 172.608 30.5622 172.608 30.9V44.1H177.54V39.78C177.54 39.4422 177.636 39.2022 177.828 39.06C178.044 38.9 178.38 38.82 178.836 38.82H184.056C184.512 38.82 184.836 38.9 185.028 39.06C185.244 39.2022 185.352 39.4422 185.352 39.78V48.18C185.352 48.5178 185.244 48.7667 185.028 48.9267C184.836 49.0689 184.512 49.14 184.056 49.14Z" fill="#FB4D46"/>
<path d="M192.347 49.14C191.891 49.14 191.555 49.0689 191.339 48.9267C191.147 48.7667 191.051 48.5178 191.051 48.18V45.0067C191.051 44.6689 191.147 44.4289 191.339 44.2867C191.555 44.1267 191.891 44.0467 192.347 44.0467H195.911V35.0867H192.347C191.891 35.0867 191.555 35.0156 191.339 34.8733C191.147 34.7133 191.051 34.4645 191.051 34.1267V30.9C191.051 30.5622 191.147 30.3222 191.339 30.18C191.555 30.02 191.891 29.94 192.347 29.94H207.683C208.139 29.94 208.463 30.02 208.655 30.18C208.871 30.3222 208.979 30.5622 208.979 30.9V34.1267C208.979 34.4645 208.871 34.7133 208.655 34.8733C208.463 35.0156 208.139 35.0867 207.683 35.0867H204.191V44.0467H207.683C208.139 44.0467 208.463 44.1267 208.655 44.2867C208.871 44.4289 208.979 44.6689 208.979 45.0067V48.18C208.979 48.5178 208.871 48.7667 208.655 48.9267C208.463 49.0689 208.139 49.14 207.683 49.14H192.347Z" fill="#FB4D46"/>
<path d="M237.544 44.1C237.544 44.9178 237.376 45.6645 237.04 46.34C236.728 46.9978 236.152 47.5667 235.312 48.0467C234.496 48.5089 233.356 48.8733 231.892 49.14C230.452 49.4067 228.616 49.54 226.384 49.54C224.152 49.54 222.304 49.4067 220.84 49.14C219.376 48.8733 218.224 48.5089 217.384 48.0467C216.568 47.5667 215.992 46.9978 215.656 46.34C215.344 45.6645 215.188 44.9178 215.188 44.1V35.0067C215.188 34.1889 215.344 33.4511 215.656 32.7933C215.992 32.1178 216.568 31.54 217.384 31.06C218.224 30.58 219.376 30.2067 220.84 29.94C222.304 29.6733 224.152 29.54 226.384 29.54C228.616 29.54 230.452 29.6733 231.892 29.94C233.356 30.2067 234.496 30.58 235.312 31.06C236.152 31.54 236.728 32.1178 237.04 32.7933C237.376 33.4511 237.544 34.1889 237.544 35.0067V44.1ZM223.36 43.14C223.36 43.4956 223.54 43.7978 223.9 44.0467C224.26 44.2778 225.088 44.3933 226.384 44.3933C227.68 44.3933 228.508 44.2778 228.868 44.0467C229.228 43.7978 229.408 43.4956 229.408 43.14V35.9667C229.408 35.6289 229.228 35.3445 228.868 35.1133C228.508 34.8645 227.68 34.74 226.384 34.74C225.088 34.74 224.26 34.8645 223.9 35.1133C223.54 35.3445 223.36 35.6289 223.36 35.9667V43.14Z" fill="#FB4D46"/>
</svg>
